<?xml version="1.0" encoding="utf-8"?>
<!-- Generator: Adobe Illustrator 15.1.0, SVG Export Plug-In . SVG Version: 6.00 Build 0)  -->
<!DOCTYPE svg PUBLIC "-//W3C//DTD SVG 1.1//EN" "http://www.w3.org/Graphics/SVG/1.1/DTD/svg11.dtd">
<svg version="1.1" id="Layer_1" xmlns="http://www.w3.org/2000/svg" xmlns:xlink="http://www.w3.org/1999/xlink" x="0px" y="0px"
	 width="512px" height="512px" viewBox="0 0 512 512" enable-background="new 0 0 512 512" xml:space="preserve">
<path d="M256.732,13.881c-132.688,0-240.63,107.951-240.63,240.653c0,132.695,107.943,240.571,240.63,240.571
	c132.702,0,240.683-107.876,240.683-240.571C497.415,121.832,389.435,13.881,256.732,13.881z M257.869,367.835
	c-62.58,0.62-113.84-49.606-114.459-112.212c-0.473-46.632,27.305-86.918,67.362-104.726c0.148-0.096,0.251-0.221,0.414-0.288
	c13.564-5.941,28.515-9.306,44.234-9.461c0.044,0,0.089,0,0.133,0c0.03,0,0.044,0,0.074,0c2.495-0.022,4.959,0.074,7.41,0.229
	c1.712,0.096,3.395,0.266,5.092,0.436c0.28,0.03,0.546,0.044,0.812,0.066v0.03c19.837,2.162,38.183,9.394,53.606,20.5l11.084-16.338
	c0.649-0.959,1.801-1.417,2.938-1.181c1.137,0.236,1.992,1.129,2.199,2.273l6.878,37.954l4.855,26.781
	c0.148,0.863-0.088,1.727-0.664,2.384c-0.546,0.612-1.299,0.959-2.11,0.966c-0.059,0-0.133-0.007-0.177-0.007l-30.095-1.594
	l-33.888-1.808c-1.151-0.059-2.126-0.782-2.524-1.867c-0.384-1.063-0.103-2.266,0.738-3.033l13.978-13.188
	c-8.768-5.689-18.818-9.505-29.622-10.944l-0.016,0.317c-3.306-0.421-6.656-0.701-10.08-0.665
	c-40.175,0.398-72.396,33.283-71.997,73.443c0.398,40.156,33.282,72.392,73.443,71.993c40.16-0.398,72.396-33.283,71.997-73.447
	c-0.03-3.505-0.399-6.922-0.916-10.287l38.744-14.627c1.712,7.675,2.716,15.63,2.789,23.822
	C370.734,315.971,320.479,367.215,257.869,367.835z"/>
</svg>
